<svg xmlns="http://www.w3.org/2000/svg" viewBox="0 0 1600 900" width="1600" height="900" preserveAspectRatio="xMidYMid slice">
<defs>
  <linearGradient id="sky" x1="0" y1="0" x2="0" y2="1">
    <stop offset="0" stop-color="#131922"/><stop offset="1" stop-color="#0a0e14"/>
  </linearGradient>
  <linearGradient id="glass" x1="0" y1="0" x2="1" y2="1">
    <stop offset="0" stop-color="#2b3038"/><stop offset="1" stop-color="#151920"/>
  </linearGradient>
  <linearGradient id="gold" x1="0" y1="0" x2="1" y2="1">
    <stop offset="0" stop-color="#ecca7f"/><stop offset="1" stop-color="#a87c26"/>
  </linearGradient>
  <radialGradient id="glow" cx="0.72" cy="0.22" r="0.5">
    <stop offset="0" stop-color="#d6a544" stop-opacity="0.5"/><stop offset="1" stop-color="#d6a544" stop-opacity="0"/>
  </radialGradient>
</defs>
<rect width="1600" height="900" fill="url(#sky)"/>
<rect width="1600" height="900" fill="url(#glow)"/>
<line x1="0" y1="0" x2="0" y2="900" stroke="#ffffff" stroke-width="0.5" opacity="0.06"/>
<line x1="40" y1="0" x2="40" y2="900" stroke="#ffffff" stroke-width="0.5" opacity="0.06"/>
<line x1="80" y1="0" x2="80" y2="900" stroke="#ffffff" stroke-width="0.5" opacity="0.06"/>
<line x1="120" y1="0" x2="120" y2="900" stroke="#ffffff" stroke-width="0.5" opacity="0.06"/>
<line x1="160" y1="0" x2="160" y2="900" stroke="#ffffff" stroke-width="0.5" opacity="0.06"/>
<line x1="200" y1="0" x2="200" y2="900" stroke="#ffffff" stroke-width="0.5" opacity="0.06"/>
<line x1="240" y1="0" x2="240" y2="900" stroke="#ffffff" stroke-width="0.5" opacity="0.06"/>
<line x1="280" y1="0" x2="280" y2="900" stroke="#ffffff" stroke-width="0.5" opacity="0.06"/>
<line x1="320" y1="0" x2="320" y2="900" stroke="#ffffff" stroke-width="0.5" opacity="0.06"/>
<line x1="360" y1="0" x2="360" y2="900" stroke="#ffffff" stroke-width="0.5" opacity="0.06"/>
<line x1="400" y1="0" x2="400" y2="900" stroke="#ffffff" stroke-width="0.5" opacity="0.06"/>
<line x1="440" y1="0" x2="440" y2="900" stroke="#ffffff" stroke-width="0.5" opacity="0.06"/>
<line x1="480" y1="0" x2="480" y2="900" stroke="#ffffff" stroke-width="0.5" opacity="0.06"/>
<line x1="520" y1="0" x2="520" y2="900" stroke="#ffffff" stroke-width="0.5" opacity="0.06"/>
<line x1="560" y1="0" x2="560" y2="900" stroke="#ffffff" stroke-width="0.5" opacity="0.06"/>
<line x1="600" y1="0" x2="600" y2="900" stroke="#ffffff" stroke-width="0.5" opacity="0.06"/>
<line x1="640" y1="0" x2="640" y2="900" stroke="#ffffff" stroke-width="0.5" opacity="0.06"/>
<line x1="680" y1="0" x2="680" y2="900" stroke="#ffffff" stroke-width="0.5" opacity="0.06"/>
<line x1="720" y1="0" x2="720" y2="900" stroke="#ffffff" stroke-width="0.5" opacity="0.06"/>
<line x1="760" y1="0" x2="760" y2="900" stroke="#ffffff" stroke-width="0.5" opacity="0.06"/>
<line x1="800" y1="0" x2="800" y2="900" stroke="#ffffff" stroke-width="0.5" opacity="0.06"/>
<line x1="840" y1="0" x2="840" y2="900" stroke="#ffffff" stroke-width="0.5" opacity="0.06"/>
<line x1="880" y1="0" x2="880" y2="900" stroke="#ffffff" stroke-width="0.5" opacity="0.06"/>
<line x1="920" y1="0" x2="920" y2="900" stroke="#ffffff" stroke-width="0.5" opacity="0.06"/>
<line x1="960" y1="0" x2="960" y2="900" stroke="#ffffff" stroke-width="0.5" opacity="0.06"/>
<line x1="1000" y1="0" x2="1000" y2="900" stroke="#ffffff" stroke-width="0.5" opacity="0.06"/>
<line x1="1040" y1="0" x2="1040" y2="900" stroke="#ffffff" stroke-width="0.5" opacity="0.06"/>
<line x1="1080" y1="0" x2="1080" y2="900" stroke="#ffffff" stroke-width="0.5" opacity="0.06"/>
<line x1="1120" y1="0" x2="1120" y2="900" stroke="#ffffff" stroke-width="0.5" opacity="0.06"/>
<line x1="1160" y1="0" x2="1160" y2="900" stroke="#ffffff" stroke-width="0.5" opacity="0.06"/>
<line x1="1200" y1="0" x2="1200" y2="900" stroke="#ffffff" stroke-width="0.5" opacity="0.06"/>
<line x1="1240" y1="0" x2="1240" y2="900" stroke="#ffffff" stroke-width="0.5" opacity="0.06"/>
<line x1="1280" y1="0" x2="1280" y2="900" stroke="#ffffff" stroke-width="0.5" opacity="0.06"/>
<line x1="1320" y1="0" x2="1320" y2="900" stroke="#ffffff" stroke-width="0.5" opacity="0.06"/>
<line x1="1360" y1="0" x2="1360" y2="900" stroke="#ffffff" stroke-width="0.5" opacity="0.06"/>
<line x1="1400" y1="0" x2="1400" y2="900" stroke="#ffffff" stroke-width="0.5" opacity="0.06"/>
<line x1="1440" y1="0" x2="1440" y2="900" stroke="#ffffff" stroke-width="0.5" opacity="0.06"/>
<line x1="1480" y1="0" x2="1480" y2="900" stroke="#ffffff" stroke-width="0.5" opacity="0.06"/>
<line x1="1520" y1="0" x2="1520" y2="900" stroke="#ffffff" stroke-width="0.5" opacity="0.06"/>
<line x1="1560" y1="0" x2="1560" y2="900" stroke="#ffffff" stroke-width="0.5" opacity="0.06"/>
<line x1="0" y1="0" x2="1600" y2="0" stroke="#ffffff" stroke-width="0.5" opacity="0.06"/>
<line x1="0" y1="40" x2="1600" y2="40" stroke="#ffffff" stroke-width="0.5" opacity="0.06"/>
<line x1="0" y1="80" x2="1600" y2="80" stroke="#ffffff" stroke-width="0.5" opacity="0.06"/>
<line x1="0" y1="120" x2="1600" y2="120" stroke="#ffffff" stroke-width="0.5" opacity="0.06"/>
<line x1="0" y1="160" x2="1600" y2="160" stroke="#ffffff" stroke-width="0.5" opacity="0.06"/>
<line x1="0" y1="200" x2="1600" y2="200" stroke="#ffffff" stroke-width="0.5" opacity="0.06"/>
<line x1="0" y1="240" x2="1600" y2="240" stroke="#ffffff" stroke-width="0.5" opacity="0.06"/>
<line x1="0" y1="280" x2="1600" y2="280" stroke="#ffffff" stroke-width="0.5" opacity="0.06"/>
<line x1="0" y1="320" x2="1600" y2="320" stroke="#ffffff" stroke-width="0.5" opacity="0.06"/>
<line x1="0" y1="360" x2="1600" y2="360" stroke="#ffffff" stroke-width="0.5" opacity="0.06"/>
<line x1="0" y1="400" x2="1600" y2="400" stroke="#ffffff" stroke-width="0.5" opacity="0.06"/>
<line x1="0" y1="440" x2="1600" y2="440" stroke="#ffffff" stroke-width="0.5" opacity="0.06"/>
<line x1="0" y1="480" x2="1600" y2="480" stroke="#ffffff" stroke-width="0.5" opacity="0.06"/>
<line x1="0" y1="520" x2="1600" y2="520" stroke="#ffffff" stroke-width="0.5" opacity="0.06"/>
<line x1="0" y1="560" x2="1600" y2="560" stroke="#ffffff" stroke-width="0.5" opacity="0.06"/>
<line x1="0" y1="600" x2="1600" y2="600" stroke="#ffffff" stroke-width="0.5" opacity="0.06"/>
<line x1="0" y1="640" x2="1600" y2="640" stroke="#ffffff" stroke-width="0.5" opacity="0.06"/>
<line x1="0" y1="680" x2="1600" y2="680" stroke="#ffffff" stroke-width="0.5" opacity="0.06"/>
<line x1="0" y1="720" x2="1600" y2="720" stroke="#ffffff" stroke-width="0.5" opacity="0.06"/>
<line x1="0" y1="760" x2="1600" y2="760" stroke="#ffffff" stroke-width="0.5" opacity="0.06"/>
<line x1="0" y1="800" x2="1600" y2="800" stroke="#ffffff" stroke-width="0.5" opacity="0.06"/>
<line x1="0" y1="840" x2="1600" y2="840" stroke="#ffffff" stroke-width="0.5" opacity="0.06"/>
<line x1="0" y1="880" x2="1600" y2="880" stroke="#ffffff" stroke-width="0.5" opacity="0.06"/>
<rect x="256" y="162" width="1088" height="558" fill="none" stroke="#d6a544" stroke-width="3"/>
<line x1="735" y1="162" x2="735" y2="720" stroke="#d6a544" stroke-width="2.2" opacity="0.9"/>
<line x1="256" y1="469" x2="735" y2="469" stroke="#d6a544" stroke-width="2.2" opacity="0.9"/>
<line x1="735" y1="374" x2="1344" y2="374" stroke="#d6a544" stroke-width="2.2" opacity="0.9"/>
<line x1="1039" y1="374" x2="1039" y2="720" stroke="#d6a544" stroke-width="2.2" opacity="0.9"/>
<line x1="256" y1="132" x2="1344" y2="132" stroke="#ffffff" stroke-width="1" opacity="0.4"/>
<line x1="256" y1="124" x2="256" y2="140" stroke="#ffffff" stroke-width="1" opacity="0.4"/>
<line x1="1344" y1="124" x2="1344" y2="140" stroke="#ffffff" stroke-width="1" opacity="0.4"/>
<rect x="812" y="374" width="96" height="40" fill="none" stroke="#ffffff" stroke-width="1.2" opacity="0.28" rx="3"/>
<rect x="469" y="546" width="77" height="60" fill="none" stroke="#ffffff" stroke-width="1.2" opacity="0.28" rx="3"/>
<rect x="1036" y="197" width="91" height="50" fill="none" stroke="#ffffff" stroke-width="1.2" opacity="0.28" rx="3"/>
<rect x="347" y="609" width="107" height="51" fill="none" stroke="#ffffff" stroke-width="1.2" opacity="0.28" rx="3"/>
<rect x="318" y="567" width="98" height="51" fill="none" stroke="#ffffff" stroke-width="1.2" opacity="0.28" rx="3"/>
<rect x="634" y="309" width="103" height="48" fill="none" stroke="#ffffff" stroke-width="1.2" opacity="0.28" rx="3"/>
<rect x="705" y="489" width="102" height="51" fill="none" stroke="#ffffff" stroke-width="1.2" opacity="0.28" rx="3"/>
<text x="1576" y="880" text-anchor="end" font-family="Inter, Arial, sans-serif" font-size="17" fill="#ffffff" opacity="0.34">Placeholder — architectural design</text>
</svg>