<svg xmlns="http://www.w3.org/2000/svg" viewBox="0 0 1600 900" width="1600" height="900" preserveAspectRatio="xMidYMid slice">
<defs>
  <linearGradient id="sky" x1="0" y1="0" x2="0" y2="1">
    <stop offset="0" stop-color="#232a35"/><stop offset="1" stop-color="#0c0f14"/>
  </linearGradient>
  <linearGradient id="glass" x1="0" y1="0" x2="1" y2="1">
    <stop offset="0" stop-color="#2b3038"/><stop offset="1" stop-color="#151920"/>
  </linearGradient>
  <linearGradient id="gold" x1="0" y1="0" x2="1" y2="1">
    <stop offset="0" stop-color="#ecca7f"/><stop offset="1" stop-color="#a87c26"/>
  </linearGradient>
  <radialGradient id="glow" cx="0.72" cy="0.22" r="0.5">
    <stop offset="0" stop-color="#d6a544" stop-opacity="0.5"/><stop offset="1" stop-color="#d6a544" stop-opacity="0"/>
  </radialGradient>
</defs>
<rect width="1600" height="900" fill="url(#sky)"/>
<rect width="1600" height="900" fill="url(#glow)"/>
<rect x="580" y="201" width="59" height="59" fill="none" stroke="#d6a544" stroke-width="1.2" opacity="0.12" transform="rotate(21 580 201)"/>
<rect x="1544" y="893" width="170" height="170" fill="none" stroke="#d6a544" stroke-width="1.2" opacity="0.18" transform="rotate(43 1544 893)"/>
<rect x="1310" y="291" width="116" height="116" fill="none" stroke="#d6a544" stroke-width="1.2" opacity="0.11" transform="rotate(35 1310 291)"/>
<rect x="1128" y="146" width="69" height="69" fill="none" stroke="#d6a544" stroke-width="1.2" opacity="0.06" transform="rotate(11 1128 146)"/>
<rect x="996" y="757" width="180" height="180" fill="none" stroke="#d6a544" stroke-width="1.2" opacity="0.08" transform="rotate(11 996 757)"/>
<rect x="297" y="541" width="85" height="85" fill="none" stroke="#d6a544" stroke-width="1.2" opacity="0.16" transform="rotate(9 297 541)"/>
<rect x="1294" y="849" width="139" height="139" fill="none" stroke="#d6a544" stroke-width="1.2" opacity="0.05" transform="rotate(12 1294 849)"/>
<rect x="1075" y="337" width="185" height="185" fill="none" stroke="#d6a544" stroke-width="1.2" opacity="0.08" transform="rotate(41 1075 337)"/>
<rect x="1464" y="283" width="183" height="183" fill="none" stroke="#d6a544" stroke-width="1.2" opacity="0.17" transform="rotate(16 1464 283)"/>
<rect x="840" y="879" width="124" height="124" fill="none" stroke="#d6a544" stroke-width="1.2" opacity="0.12" transform="rotate(12 840 879)"/>
<rect x="977" y="688" width="117" height="117" fill="none" stroke="#d6a544" stroke-width="1.2" opacity="0.07" transform="rotate(38 977 688)"/>
<rect x="1256" y="412" width="176" height="176" fill="none" stroke="#d6a544" stroke-width="1.2" opacity="0.14" transform="rotate(28 1256 412)"/>
<rect x="636" y="192" width="164" height="164" fill="none" stroke="#d6a544" stroke-width="1.2" opacity="0.13" transform="rotate(39 636 192)"/>
<rect x="680" y="521" width="95" height="95" fill="none" stroke="#d6a544" stroke-width="1.2" opacity="0.12" transform="rotate(40 680 521)"/>
<rect x="1213" y="176" width="44" height="44" fill="none" stroke="#d6a544" stroke-width="1.2" opacity="0.14" transform="rotate(26 1213 176)"/>
<rect x="1234" y="272" width="36" height="36" fill="none" stroke="#d6a544" stroke-width="1.2" opacity="0.05" transform="rotate(3 1234 272)"/>
<g transform="translate(660 310) scale(11.6)" fill="none" stroke="url(#gold)" stroke-width="1.3" stroke-linecap="round" stroke-linejoin="round" opacity="0.9"><path d="M9 6h6"/><path d="M12 6v4"/><path d="M6 14a6 6 0 0 1 12 0"/><path d="M4 14h16"/><path d="M12 14v3"/><path d="M10 21h4"/><path d="M12 17v4"/></g>
<text x="1576" y="880" text-anchor="end" font-family="Inter, Arial, sans-serif" font-size="17" fill="#ffffff" opacity="0.34">Placeholder — plumbing work</text>
</svg>