<svg xmlns="http://www.w3.org/2000/svg" viewBox="0 0 1200 900" width="1200" height="900" preserveAspectRatio="xMidYMid slice">
<defs>
  <linearGradient id="sky" x1="0" y1="0" x2="0" y2="1">
    <stop offset="0" stop-color="#232a35"/><stop offset="1" stop-color="#0d1015"/>
  </linearGradient>
  <linearGradient id="glass" x1="0" y1="0" x2="1" y2="1">
    <stop offset="0" stop-color="#2b3038"/><stop offset="1" stop-color="#151920"/>
  </linearGradient>
  <linearGradient id="gold" x1="0" y1="0" x2="1" y2="1">
    <stop offset="0" stop-color="#ecca7f"/><stop offset="1" stop-color="#a87c26"/>
  </linearGradient>
  <radialGradient id="glow" cx="0.72" cy="0.22" r="0.5">
    <stop offset="0" stop-color="#d6a544" stop-opacity="0.5"/><stop offset="1" stop-color="#d6a544" stop-opacity="0"/>
  </radialGradient>
</defs>
<rect width="1200" height="900" fill="url(#sky)"/>
<rect width="1200" height="900" fill="url(#glow)"/>
<rect x="-40" y="502.0" width="71" height="200" fill="#171b22" opacity="0.75"/>
<rect x="44" y="586.0" width="120" height="116" fill="#171b22" opacity="0.75"/>
<rect x="195" y="587.0" width="75" height="115" fill="#171b22" opacity="0.75"/>
<rect x="310" y="485.0" width="84" height="217" fill="#171b22" opacity="0.75"/>
<rect x="411" y="585.0" width="87" height="117" fill="#171b22" opacity="0.75"/>
<rect x="531" y="607.0" width="74" height="95" fill="#171b22" opacity="0.75"/>
<rect x="619" y="485.0" width="99" height="217" fill="#171b22" opacity="0.75"/>
<rect x="751" y="488.0" width="127" height="214" fill="#171b22" opacity="0.75"/>
<rect x="901" y="471.0" width="96" height="231" fill="#171b22" opacity="0.75"/>
<rect x="1009" y="617.0" width="85" height="85" fill="#171b22" opacity="0.75"/>
<rect x="1128" y="535.0" width="121" height="167" fill="#171b22" opacity="0.75"/>
<rect x="360" y="342" width="480" height="360" fill="#2a2f38"/>
<rect x="370.0" y="352.0" width="84.0" height="106.7" fill="#f2c877" opacity="0.85" rx="1"/>
<rect x="370.0" y="468.7" width="84.0" height="106.7" fill="#f2c877" opacity="0.85" rx="1"/>
<rect x="370.0" y="585.3" width="84.0" height="106.7" fill="#20252d" opacity="0.9" rx="1"/>
<rect x="464.0" y="352.0" width="84.0" height="106.7" fill="#f2c877" opacity="0.85" rx="1"/>
<rect x="464.0" y="468.7" width="84.0" height="106.7" fill="#20252d" opacity="0.9" rx="1"/>
<rect x="464.0" y="585.3" width="84.0" height="106.7" fill="#f2c877" opacity="0.85" rx="1"/>
<rect x="558.0" y="352.0" width="84.0" height="106.7" fill="#20252d" opacity="0.9" rx="1"/>
<rect x="558.0" y="468.7" width="84.0" height="106.7" fill="#f2c877" opacity="0.85" rx="1"/>
<rect x="558.0" y="585.3" width="84.0" height="106.7" fill="#f2c877" opacity="0.85" rx="1"/>
<rect x="652.0" y="352.0" width="84.0" height="106.7" fill="#f2c877" opacity="0.85" rx="1"/>
<rect x="652.0" y="468.7" width="84.0" height="106.7" fill="#f2c877" opacity="0.85" rx="1"/>
<rect x="652.0" y="585.3" width="84.0" height="106.7" fill="#f2c877" opacity="0.85" rx="1"/>
<rect x="746.0" y="352.0" width="84.0" height="106.7" fill="#20252d" opacity="0.9" rx="1"/>
<rect x="746.0" y="468.7" width="84.0" height="106.7" fill="#f2c877" opacity="0.85" rx="1"/>
<rect x="746.0" y="585.3" width="84.0" height="106.7" fill="#f2c877" opacity="0.85" rx="1"/>
<rect x="660" y="90" width="360" height="252" fill="#343a44"/>
<rect x="670.0" y="100.0" width="77.5" height="111.0" fill="#f2c877" opacity="0.85" rx="1"/>
<rect x="670.0" y="221.0" width="77.5" height="111.0" fill="#f2c877" opacity="0.85" rx="1"/>
<rect x="757.5" y="100.0" width="77.5" height="111.0" fill="#20252d" opacity="0.9" rx="1"/>
<rect x="757.5" y="221.0" width="77.5" height="111.0" fill="#f2c877" opacity="0.85" rx="1"/>
<rect x="845.0" y="100.0" width="77.5" height="111.0" fill="#f2c877" opacity="0.85" rx="1"/>
<rect x="845.0" y="221.0" width="77.5" height="111.0" fill="#f2c877" opacity="0.85" rx="1"/>
<rect x="932.5" y="100.0" width="77.5" height="111.0" fill="#f2c877" opacity="0.85" rx="1"/>
<rect x="932.5" y="221.0" width="77.5" height="111.0" fill="#20252d" opacity="0.9" rx="1"/>
<rect x="144" y="486" width="240" height="216" fill="url(#gold)" opacity="0.55"/>
<line x1="144" y1="486" x2="384" y2="486" stroke="#0d1015" stroke-width="1.6" opacity="0.35"/>
<line x1="144" y1="510" x2="384" y2="510" stroke="#0d1015" stroke-width="1.6" opacity="0.35"/>
<line x1="144" y1="534" x2="384" y2="534" stroke="#0d1015" stroke-width="1.6" opacity="0.35"/>
<line x1="144" y1="558" x2="384" y2="558" stroke="#0d1015" stroke-width="1.6" opacity="0.35"/>
<line x1="144" y1="582" x2="384" y2="582" stroke="#0d1015" stroke-width="1.6" opacity="0.35"/>
<line x1="144" y1="606" x2="384" y2="606" stroke="#0d1015" stroke-width="1.6" opacity="0.35"/>
<line x1="144" y1="630" x2="384" y2="630" stroke="#0d1015" stroke-width="1.6" opacity="0.35"/>
<line x1="144" y1="654" x2="384" y2="654" stroke="#0d1015" stroke-width="1.6" opacity="0.35"/>
<line x1="144" y1="678" x2="384" y2="678" stroke="#0d1015" stroke-width="1.6" opacity="0.35"/>
<rect x="0" y="702" width="1200" height="198" fill="#0a0c10"/>
<rect x="0" y="702" width="1200" height="6" fill="#d6a544" opacity="0.35"/>
<rect x="1007" y="637.0" width="4" height="65" fill="#12161c"/>
<circle cx="1009" cy="637.0" r="21" fill="#141a20"/>
<rect x="559" y="599.0" width="4" height="103" fill="#12161c"/>
<circle cx="561" cy="599.0" r="33" fill="#141a20"/>
<rect x="620" y="600.0" width="4" height="102" fill="#12161c"/>
<circle cx="622" cy="600.0" r="33" fill="#141a20"/>
<rect x="831" y="581.0" width="4" height="121" fill="#12161c"/>
<circle cx="833" cy="581.0" r="39" fill="#141a20"/>
<rect x="667" y="615.0" width="4" height="87" fill="#12161c"/>
<circle cx="669" cy="615.0" r="28" fill="#141a20"/>
<rect x="215" y="603.0" width="4" height="99" fill="#12161c"/>
<circle cx="217" cy="603.0" r="32" fill="#141a20"/>
<text x="1176" y="880" text-anchor="end" font-family="Inter, Arial, sans-serif" font-size="17" fill="#ffffff" opacity="0.34">Placeholder — project photo</text>
</svg>